<?xml version="1.0" encoding="UTF-8" standalone="no"?>
<!-- Created with Inkscape (http://www.inkscape.org/) -->

<svg
   xmlns:dc="http://purl.org/dc/elements/1.1/"
   xmlns:cc="http://creativecommons.org/ns#"
   xmlns:rdf="http://www.w3.org/1999/02/22-rdf-syntax-ns#"
   xmlns:svg="http://www.w3.org/2000/svg"
   xmlns="http://www.w3.org/2000/svg"
   xmlns:sodipodi="http://sodipodi.sourceforge.net/DTD/sodipodi-0.dtd"
   xmlns:inkscape="http://www.inkscape.org/namespaces/inkscape"
   id="svg2"
   sodipodi:docname="icon.svg"
   viewBox="0 0 99.999996 99.999998"
   version="1.1"
   inkscape:version="0.92.2 (5c3e80d, 2017-08-06)"
   width="100"
   height="100">
  <sodipodi:namedview
     id="namedview92"
     bordercolor="#666666"
     inkscape:pageshadow="2"
     guidetolerance="10"
     pagecolor="#ffffff"
     gridtolerance="10"
     inkscape:window-maximized="1"
     inkscape:zoom="5.2149347"
     objecttolerance="10"
     borderopacity="1"
     inkscape:current-layer="svg2"
     inkscape:cx="108.34422"
     inkscape:cy="55.162915"
     inkscape:window-y="68"
     inkscape:window-x="134"
     inkscape:window-width="3706"
     showgrid="false"
     inkscape:pageopacity="0"
     inkscape:window-height="2050" />
  <defs
     id="defs4">
    <linearGradient
       id="linearGradient3069"
       y2="129.23"
       gradientUnits="userSpaceOnUse"
       x2="89.429001"
       gradientTransform="matrix(0.20723628,0,0,0.20723628,37.08844,-11.746905)"
       y1="129.23"
       x1="80.916"
       inkscape:collect="always">
      <stop
         id="stop3954-7"
         style="stop-color:#6600cc"
         offset="0" />
      <stop
         id="stop3956-7"
         style="stop-color:#6600cc;stop-opacity:0"
         offset="1" />
    </linearGradient>
    <linearGradient
       id="linearGradient3078"
       y2="129.23"
       gradientUnits="userSpaceOnUse"
       x2="89.429001"
       gradientTransform="matrix(0.20723628,0,0,0.20723628,34.04281,-10.914555)"
       y1="129.23"
       x1="80.916"
       inkscape:collect="always">
      <stop
         id="stop3954"
         style="stop-color:#6600cc"
         offset="0" />
      <stop
         id="stop3956"
         style="stop-color:#6600cc;stop-opacity:0"
         offset="1" />
    </linearGradient>
    <linearGradient
       id="linearGradient3099"
       y2="465.09"
       gradientUnits="userSpaceOnUse"
       x2="77.014999"
       gradientTransform="matrix(0.20723628,0,0,0.20723628,39.496284,-7.3084979)"
       y1="384.81"
       x1="8.5349998"
       inkscape:collect="always">
      <stop
         id="stop5263"
         style="stop-color:#6d5744"
         offset="0" />
      <stop
         id="stop5265"
         style="stop-color:#6d5744;stop-opacity:0"
         offset="1" />
    </linearGradient>
    <linearGradient
       id="linearGradient3102"
       y2="197.66"
       gradientUnits="userSpaceOnUse"
       x2="100.23"
       gradientTransform="matrix(0.20723628,0,0,0.20723628,39.496284,-7.3084979)"
       y1="163.64"
       x1="-41.915001"
       inkscape:collect="always">
      <stop
         id="stop5276"
         style="stop-color:#6d5744"
         offset="0" />
      <stop
         id="stop5278"
         style="stop-color:#6d5744;stop-opacity:0"
         offset="1" />
    </linearGradient>
    <linearGradient
       id="linearGradient3922"
       y2="202.05"
       gradientUnits="userSpaceOnUse"
       x2="416.51001"
       y1="220.22"
       x1="420.17001"
       inkscape:collect="always"
       gradientTransform="matrix(0.10773356,0,0,0.10773356,10.712032,-2.9458279)">
      <stop
         id="stop3918"
         style="stop-color:#212121"
         offset="0" />
      <stop
         id="stop3920"
         style="stop-color:#212121;stop-opacity:0"
         offset="1" />
    </linearGradient>
  </defs>
  <path
     id="path3881-5"
     d="m 55.629382,35.545217 c -1.500402,0.232489 -3.231573,0.765587 -4.317313,1.670087 0.534962,2.556731 2.833609,-0.416186 4.493458,0.120016 2.108888,-0.214824 1.213837,-2.257343 -0.176206,-1.790103 z"
     style="fill:#ffff99;stroke:#816647;stroke-width:0.2694093"
     inkscape:connector-curvature="0" />
  <path
     id="path3881-8"
     d="m 54.346278,31.576312 c -1.517642,-0.04733 -3.317225,0.158412 -4.550772,0.84793 0.05578,2.61146 2.861833,0.111869 4.394774,0.9441 2.112438,0.176577 1.608136,-1.995764 0.155913,-1.792038 z"
     style="fill:#ffff99;stroke:#816647;stroke-width:0.2694093"
     inkscape:connector-curvature="0" />
  <path
     id="path3881"
     d="m 58.680403,39.564756 c -1.494266,0.269334 -3.211756,0.84488 -4.274871,1.775881 0.597704,2.542726 2.822509,-0.485793 4.495077,0.0094 2.10296,-0.266641 1.157918,-2.286538 -0.220206,-1.785251 z"
     style="fill:#ffff99;stroke:#816647;stroke-width:0.2694093"
     inkscape:connector-curvature="0" />
  <path
     id="path3879"
     d="m 61.333878,44.542046 c -1.560416,-0.551864 -4.883996,2.090895 -2.07678,2.43198 0.896267,-0.921911 2.273497,-0.57505 3.505755,-0.783268 1.485755,-1.120538 -0.386514,-1.896972 -1.428975,-1.648647 z"
     style="fill:#ffff99;stroke:#816647;stroke-width:0.2694093"
     inkscape:connector-curvature="0" />
  <path
     id="path3877"
     d="m 65.802665,62.09292 c -2.08766,0.666915 0.0027,2.196152 1.310574,1.722661 0.947241,0.01175 1.914105,-0.04508 2.836955,0.07669 1.595209,-0.894157 -0.324387,-2.190223 -1.468194,-1.799365 h -2.679335 z"
     style="fill:#ffff99;stroke:#816647;stroke-width:0.2694093"
     inkscape:connector-curvature="0" />
  <path
     id="path3875"
     d="m 69.267378,70.097523 c -1.783853,-0.838825 -3.30548,2.035518 -0.858878,1.74992 1.203387,-0.331415 3.281997,0.653685 3.772721,-0.888549 -0.178706,-1.410015 -2.023771,-0.644218 -2.91387,-0.861351 z"
     style="fill:#ffff99;stroke:#816647;stroke-width:0.2694093"
     inkscape:connector-curvature="0" />
  <path
     id="path3873"
     d="m 65.757415,78.108591 c -2.484769,1.20952 2.167704,2.65445 2.091868,3.14097 0.540277,0.86823 0.584147,1.24519 1.033452,1.47455 2.04187,0.43824 1.04716,-2.01224 0.08691,-2.69851 -0.890782,-0.90418 -1.918728,-1.69777 -3.212179,-1.91701 z"
     style="fill:#ffff99;stroke:#816647;stroke-width:0.2694093"
     inkscape:connector-curvature="0" />
  <path
     id="path3871"
     d="m 68.471221,82.188461 0.0061,0.0259 z"
     style="fill:#ffff99;stroke:#816647;stroke-width:0.2694093"
     inkscape:connector-curvature="0" />
  <path
     id="path4272"
     d="m 60.116489,86.715421 c -2.266503,0.79403 0.518529,2.21694 1.606089,2.55167 -0.319053,1.35658 1.607927,3.22253 1.949335,1.04915 0.193316,-2.17309 -1.721588,-3.18751 -3.555424,-3.60077 z"
     style="fill:#ffff99;stroke:#816647;stroke-width:0.2694093"
     inkscape:connector-curvature="0" />
  <g
     id="g5904"
     style="stroke:#015a01"
     transform="matrix(0.20723627,0,0,0.20723627,33.910298,-10.715354)">
    <path
       id="path4269"
       d="m 155.98,488.01 a 31.122,36.497 0 1 1 -1.22,-64.48"
       style="fill:#66cc33;stroke:#015a01;stroke-width:0.89999998"
       transform="translate(-132.55,5.7985)"
       inkscape:connector-curvature="0" />
    <path
       id="path4267"
       d="m 135.8,445.27 a 33.986,36.899 0 1 1 9.7369,39.546"
       style="fill:#66cc33;stroke:#015a01;stroke-width:0.88405001"
       transform="matrix(1.0019,-0.18062,0.18062,1.0019,-218.91,35.24)"
       inkscape:connector-curvature="0" />
    <path
       id="path4265"
       d="m 167.9,478.33 a 43.697,33.986 0 1 1 38.346,11.559"
       style="fill:#66cc33;stroke:#015a01;stroke-width:0.84894001"
       transform="matrix(0.96989,0.51946,-0.56662,0.85532,129.04,-34.443)"
       inkscape:connector-curvature="0" />
    <path
       id="path4227-5-0"
       d="m 205.36,406.05 a 50.381,30.214 0 1 1 75.368,24.902"
       style="fill:#66cc33;stroke:#015a01;stroke-width:0.86545002"
       transform="matrix(0.94681,0.38718,-0.36996,0.9909,-4.7168,-49.065)"
       inkscape:connector-curvature="0" />
    <path
       id="path4227-5"
       d="m 221.38,425.53 a 50.381,28.411 0 1 1 67.773,0.43838"
       style="fill:#66cc33;stroke:#015a01;stroke-width:0.82037002"
       transform="matrix(1.0373,0.24762,-0.23671,1.1038,-65.132,-75.481)"
       inkscape:connector-curvature="0" />
    <path
       id="path4227"
       d="m 206.04,409.53 a 50.381,28.411 0 1 1 86.24,14.733"
       style="fill:#66cc33;stroke:#015a01;stroke-width:0.77965999"
       transform="matrix(1.0639,0,0,1.2525,-157.93,-98.496)"
       inkscape:connector-curvature="0" />
    <path
       id="path4225-2"
       d="m 225.39,392 a 46.972,26.895 0 1 1 62.784,-15.176"
       style="fill:#66cc33;stroke:#015a01;stroke-width:0.80599999"
       transform="matrix(1.1209,0,0,1.1123,-158.46,-18.128)"
       inkscape:connector-curvature="0" />
    <path
       id="path3418-9"
       d="m 157.51,375.64 c 4.9383,-9.0103 1.6526,-17.354 -7.625,-24.469 6.0772,-17.646 -8.6538,-60.144 -35.031,-91.812 -1.3807,-1.6577 -3.2934,-2.9847 -5.625,-4 -6.1882,-22.424 -26.148,-28.54 -43.875,-23.594 -23.792,6.6391 -44.719,13.087 -44.719,29.25 0,8.4362 5.4591,16.034 14.188,21.375 -0.31026,0.68092 -0.59427,1.3623 -0.84375,2.0625 -6.4803,27.801 16.103,65.353 26.031,76.75 0.14487,0.1663 0.29268,0.30837 0.4375,0.46875 -5.5745,13.415 6.6106,27.527 29.75,32.969"
       style="fill:#66cc33;stroke:#015a01;stroke-width:0.89999998"
       inkscape:connector-curvature="0" />
    <path
       id="path3418-54"
       d="m 165.1,192.18 a 35.714,25.423 0 1 1 60.364,-7.4578"
       style="fill:#66cc33;stroke:#015a01;stroke-width:0.75961"
       transform="matrix(1.1757,-0.14689,0.14689,1.1757,-199.58,52.104)"
       inkscape:connector-curvature="0" />
    <path
       id="path3418-5"
       d="m 165.18,192.64 a 35.714,26.026 0 1 1 58.892,-5.4041"
       style="fill:#66cc33;stroke:#015a01;stroke-width:0.75961"
       transform="matrix(1.1848,0,0,1.1848,-180.57,-7.7238)"
       inkscape:connector-curvature="0" />
    <path
       id="path3418"
       d="m 178.08,200.01 a 35.714,26.582 0 1 1 43.239,-9.1014"
       style="fill:#66cc33;stroke:#015a01;stroke-width:0.75961"
       transform="matrix(1.1848,0,0,1.1848,-178.07,-33.132)"
       inkscape:connector-curvature="0" />
    <path
       id="path3416"
       d="m 194.64,164.22 a 50.528,44.244 0 1 1 42.772,22.373"
       style="fill:#66cc33;stroke:#015a01;stroke-width:0.89999998"
       transform="matrix(0.9036,-0.42838,0.42838,0.9036,-206.62,119.72)"
       inkscape:connector-curvature="0" />
  </g>
  <path
     id="path5079"
     d="m 47.897347,10.357112 c -1.987147,0.260295 -3.903294,1.038422 -5.511327,2.234285 0.395374,1.124632 0.921284,2.094235 0.836456,3.366137 0.664715,0.368996 0.751292,0.0819 0.938036,0.934134 -0.58956,0.145184 1.30853,0.429999 1.793654,0.344393 1.383624,-0.688094 0.211785,-2.585928 0.589583,-3.789743 -0.124658,-1.361644 0.450122,-2.005247 1.353567,-3.089153 z m -1.256389,1.839227 c -0.116245,0.197163 0.221865,0.0048 0,0 z m -5.868247,1.859481 c -1.519368,1.582174 -2.478628,3.698277 -2.648738,5.886885 0.597706,0.721933 1.084232,1.514195 2.558135,1.372955 1.382222,-0.06598 2.707343,1.463671 4.099692,0.406221 0.06014,-1.150164 -1.273412,-2.176649 -2.303021,-2.607368 -1.164276,-0.590153 -1.005919,-1.920458 -1.219973,-2.638285 -0.483098,-0.82233 -0.130185,-0.488777 -0.434167,-1.552656 -0.04532,-0.286775 -0.05687,-0.577915 -0.05182,-0.867806 z m -4.222508,8.296131 c -1.302285,1.472393 -1.575282,3.7571 -0.69944,5.511326 -0.910004,1.277827 -1.430164,3.118563 -0.688062,4.581585 0.935581,1.010087 1.673642,2.023343 2.577311,2.998871 0.554645,0.455873 3.226511,0.142993 2.466991,-1.011855 0.389951,-1.049207 1.246798,-0.503083 2.204228,-0.597437 -0.09507,-0.748122 -1.414543,-2.305713 -0.401522,-2.29257 -0.57184,-0.05034 -1.124848,0.09824 -1.79204,-0.07142 -0.249481,0.126965 -1.265654,0.427133 -1.80874,0.770856 -0.303011,-0.470753 -1.026453,-0.972392 -1.508917,-1.431242 0.681814,-0.747821 1.353995,-1.227515 2.007617,-2.409135 -0.152823,-1.187978 0.151902,-2.57882 -0.533521,-3.719609 -0.472841,-0.85988 -1.027529,-1.751537 -1.823819,-2.329205 z m 2.266713,3.186328 c -0.277802,0.222836 0.285288,0.131671 0,0 z m 3.561994,0.136001 c -0.857796,0.925875 -1.464959,-0.06864 -2.435101,0.7383 -0.796268,0.707055 -0.857214,1.957625 0.08267,2.53066 0.437464,0.263744 0.876897,1.401077 1.290326,0.519623 0.377843,-0.02244 0.657162,-0.07865 1.334064,-0.673487 0.875388,-0.284772 1.815311,-0.991763 0.854865,-1.262853 -0.186336,0.276498 -0.180315,-0.214801 -0.459775,-0.421001 -0.242829,0.253594 -0.113529,-1.210817 -0.667096,-1.431242 z m 1.042678,1.632057 c -0.49579,0.467756 0.339274,0.131275 0,0 z m -1.288815,2.201967 c 0.671803,0.326409 1.856141,-0.003 0.476095,0.0308 -0.159649,0.02196 -0.317306,-0.01876 -0.476095,-0.0308 z m 1.314673,0.05181 c -0.06412,0.354454 0.204228,0.06818 0,0 z m -6.03588,1.606091 c -0.09165,0.0974 0.166274,0.02043 0,0 z m 4.708279,0.375625 c -0.277188,0.159811 0.211135,-1.08e-4 0,0 z m 0.04533,0.01297 c -0.06048,0.06858 0.13779,0.03199 0,0 z m -1.470131,2.253785 c -0.140216,0.02256 0.08742,0.12257 0,0 z m 0.420956,0.04534 c -0.366747,0.36707 0.508675,0.03154 0,0 z m -4.170688,2.169538 c -1.809817,0.246083 -1.180437,3.393175 0.302191,3.593346 0.607498,1.000391 2.128492,1.475301 2.644536,2.656168 1.370373,0.443054 2.43047,-0.850565 2.201967,-2.15661 0.940632,0.138286 2.446306,-0.735376 2.195501,-1.975294 -1.284829,-0.02409 -2.450505,-0.280474 -3.622001,0.297064 -1.711562,0.290052 -2.79601,-1.281921 -3.722086,-2.414847 z m 4.850703,1.612555 c -0.247281,0.329073 0.209616,0.159413 0,0 z m -0.08419,0.161902 c -0.112119,-0.345565 -0.311232,0.386622 0,0 z m 0.284953,-0.161902 c -0.339262,0.206719 0.599483,0.09922 0,0 z m 0.09067,0.181338 c -0.163411,0.163636 0.395393,0.07392 0,0 z m 2.409139,0.459818 c -0.224205,0.234061 0.301609,0.425138 0,0 z m 0.207236,4.572212 c -0.114307,0.27166 0.433335,0.245814 0,0 z m -6.553971,0.05181 c -0.337121,2.084106 1.190024,3.976663 2.875408,5.006164 -0.783492,1.612555 2.678687,0.494604 2.42713,-0.800601 -0.379191,-0.474705 -0.3874,-0.907794 -0.717376,-1.31715 1.113856,0.02423 2.011816,-0.07792 3.160362,-0.816006 1.13605,-0.05196 -1.016077,-2.050493 -1.570002,-1.882536 -0.807084,0.722223 -2.037026,0.341936 -2.879178,1.23495 -0.957254,-0.706905 -2.130969,-1.208879 -3.296432,-1.424778 z m 5.453042,2.9338 c -0.217212,0.09069 0.339424,0.193339 0,0 z m -0.08419,0.887251 c -0.633849,0.274581 0.333265,0.128676 0,0 z"
     style="fill:url(#linearGradient3102);stroke-width:0.10773356"
     inkscape:connector-curvature="0" />
  <path
     id="path5255"
     d="m 51.226313,64.346705 c -0.633053,0.327672 -2.343959,0.399178 -2.275333,0.811757 0.722507,0.327078 -1.047924,0.248831 -0.328103,-0.164123 -0.652347,0.390995 -0.47269,-0.119078 -0.751246,0.485716 -0.468015,-0.06332 -0.192822,-0.924646 -0.994929,-0.295721 -1.318337,0.676027 -0.399488,2.171051 0.285858,2.973662 0.287122,0.660775 1.698096,-0.711469 1.835888,0.488982 0.864143,-0.267157 1.701651,-0.234126 2.681165,-0.59582 0.807527,-0.06175 1.356798,1.175479 1.677305,0.641145 0.777986,-0.114748 0.490575,0.763583 1.004497,0.02712 0.562951,-0.763187 1.173649,-2.327695 0.523141,-2.268873 -0.29228,-0.221975 -0.462853,-1.016171 8.2e-4,-0.322802 0.46392,-0.293215 0.01552,-0.484693 0.738153,-0.483962 0.495969,-0.483558 -1.153392,0.273147 -0.414341,-0.267286 -0.963136,0.08597 0.820089,-0.491543 -0.506615,-0.382021 -0.889737,-0.160844 -2.83727,0.128934 -3.057156,-0.206614 0.711818,-0.467903 -0.504785,0.210159 -0.419136,-0.441101 z m -3.251075,0.738298 c -0.0412,-0.279725 -0.299791,-0.06359 0,0 z m 4.138368,-0.576381 c -0.597618,0.4427 0.394381,0.362028 0,0 z m -3.788664,0.349713 c -0.600195,0.216771 0.373006,0.287409 0,7e-6 z m -0.485718,0.220193 c -0.387354,0.149581 0.575997,0.435637 0,0 z m -0.181336,0.05826 c -0.09179,0.124884 0.10283,0.215726 0,0 z m 7.518938,1.107396 c -0.36347,0.116428 0.276275,0.190242 0,0 z m 0.0842,1.340633 c 0.177012,0.44686 0.354031,0.893727 0.531049,1.340634 C 55.661686,68.464863 55.613212,67.9441 55.261026,67.584817 Z M 48.176034,70.5574 c -0.568401,0.543445 -1.441905,0.870244 -1.55244,1.74852 -0.542966,1.000393 0.07872,2.248293 0.979417,2.447489 0.45276,1.033691 1.888675,0.826346 2.425189,1.759934 1.17462,0.285591 2.87347,0.05102 2.994237,-1.428655 0.648364,-1.757133 1.407218,1.04675 2.465161,1.052795 0.530946,-0.163993 0.790084,-0.221975 1.143596,0.137663 0.347644,-0.282696 0.945157,-0.131488 1.356363,-0.64038 0.259698,-0.147615 0.600744,-1.091447 -0.160571,-1.402693 -0.651527,-0.515223 -1.206393,-2.400948 -2.077313,-1.249491 -0.235424,-0.333007 -1.157707,-0.709843 -1.055747,-0.04276 -0.639808,0.521398 -1.145964,0.002 -0.624565,-0.530182 -1.29011,0.189313 -2.483582,-0.06325 -3.770029,-0.04283 -0.590121,0.162013 -1.545653,0.13795 -0.731026,-0.481776 -0.372262,-0.537209 -1.171924,-0.687201 -1.392348,-1.327601 z m 1.91701,1.411852 c -1.142513,0.248681 0.793156,0.304518 0,0 z m 5.51133,0.518099 c -0.199674,0.24196 0.446518,0.181697 0,0 z m 0.233142,0.142478 c -0.238831,0.432154 0.324524,0.06086 0,0 z m -8.302593,2.247214 c -0.316909,0.135088 0.168397,0.256959 0,0 z m 11.009289,0.246099 c 0.07543,0.322325 0.526821,0.185796 0,0 z m -13.56796,0.718859 c -0.874293,0.593914 -2.230842,1.060179 -2.681168,1.94934 0.577711,0.81201 1.062243,1.6926 1.352165,2.55177 0.399734,0.15977 1.321784,1.28591 1.10233,0.77051 -0.274515,-0.36566 1.117626,0.68975 0.275485,0.21859 -0.375483,0.59769 0.743923,1.59015 1.392025,0.72234 0.36276,-0.27516 1.252727,-0.74191 0.56681,0.005 -0.66292,1.53757 1.266836,2.57644 2.357318,2.51277 -0.171017,0.54283 1.417341,0.36014 1.094464,-0.40802 1.054053,0.66854 1.081106,-1.35539 1.309069,-2.03853 0.11198,-0.47757 0.223969,-0.95514 0.335946,-1.43275 -0.203692,0.27268 -0.984899,0.036 -0.969915,0.19764 -0.53121,-0.4427 -1.453109,0.37053 -1.795488,-0.0163 -0.74741,-0.16592 -0.976216,-0.80986 -1.049162,-1.39893 -0.872017,0.0611 -0.39844,0.0668 -0.169744,-0.48625 -0.632344,-0.034 -1.490709,-0.1896 -1.307995,-0.76507 -1.228269,-0.50159 -0.237905,-1.623655 -1.16546,-2.293644 -0.208022,-0.06981 -0.429309,-0.08282 -0.646746,-0.08825 z m -4.844242,1.385884 c -0.925495,-0.107262 -0.809508,0.642896 -1.424775,0.317316 -1.093497,0.61897 -2.169323,-0.296361 -3.331662,-0.149409 -3.139033,0.02732 -5.502059,3.134189 -6.01929,6.078429 -0.789211,1.48188 0.575203,-0.0515 1.469165,-0.23713 -0.234192,-1.3138 1.678488,-2.71359 1.680319,-1.5059 -0.277027,0.53406 0.06054,3.86817 1.009647,4.56952 0.608812,0.79844 1.709085,0.80137 1.813049,-0.36296 0.319375,-0.85556 1.083799,-1.54199 1.403551,-1.95515 -0.722072,0.38188 -0.408232,-0.74372 -0.84896,-0.99314 0.725982,-0.6724 -0.375883,-2.74451 0.1042,-3.29416 0.2034,0.0885 2.069884,-1.10352 1.947175,0.40611 0.124981,0.383 -0.874559,0.55381 -0.218009,0.90856 -0.825023,0.50251 0.372176,0.58055 -0.36915,1.02325 0.350406,0.58162 0.647393,1.05933 0.233156,1.61902 0.576485,0.31023 -0.09106,0.53393 0.26552,1.0621 0.191477,0.42317 0.672808,0.0838 0.148955,0.58286 -0.146625,0.9041 1.33794,1.22073 0.999498,2.00288 0.917479,0.33807 1.858942,1.60846 2.332107,0.12661 0.472972,-0.71562 0.968343,-1.41756 1.44794,-2.12947 -0.367997,0.18017 -0.751766,-0.21697 -1.12043,-0.35618 0.342929,-0.80178 -0.815262,-1.14942 -0.472768,-2.01409 0.218314,-0.60078 -0.316929,-1.61448 0.150504,-1.66361 -0.391525,-0.3113 0.25269,0.0699 -0.04689,-0.46707 0.411972,-0.19585 -0.140247,-0.76843 0.602294,-0.76419 -0.514319,-0.80941 0.78499,-0.50529 0.329709,-1.15846 -0.681879,-0.34612 1.194011,-1.553521 -0.109554,-1.29647 -0.387002,-0.05 -1.584761,-0.354156 -1.975186,-0.349362 z m 7.369945,1.353566 c -0.602638,0.0879 -0.114434,0.28775 0,0 z m -11.482243,1.15921 c -0.336559,0.27015 0.272642,0.21475 0,0 z m -0.0194,0.23315 c -0.291614,0.0248 0.388098,0.24055 0,0 z m 12.531567,0.21372 c -0.06593,0.22183 0.165488,0.0526 0,0 z m -3.568458,0.99735 c -0.119477,0.11296 0.09689,0.0763 0,0 z m -8.160065,3.21217 c 0.02233,0.17953 -0.0172,0.0583 0,0 z m 0.14248,0.006 c 0.05248,0.11464 -0.0204,0.0156 0,0 z m 12.149112,0.23314 c -0.408451,0.14265 0.33043,0.292 0,0 z"
     style="fill:url(#linearGradient3099);stroke-width:0.10773356"
     inkscape:connector-curvature="0" />
  <g
     id="g5899"
     style="stroke:#015a01"
     transform="matrix(0.20723627,0,0,0.20723627,33.910298,-10.715354)">
    <path
       id="path3355"
       d="m 117.95,147.91 c 2.0616,13.147 -6.6428,16.932 -10.971,15.996"
       style="fill:#66cc33;stroke:#015a01;stroke-width:1px"
       inkscape:connector-curvature="0" />
    <path
       id="path4593"
       d="m 247.45,144.66 a 14.908,15.413 0 0 1 -28.87,1.4092"
       style="fill:#66cc33;stroke:#015a01"
       transform="matrix(1.075,0,0,1,-156.26,4.7896)"
       inkscape:connector-curvature="0" />
    <path
       id="path4595"
       d="m 254.4,122.14 a 13.756,14.188 0 0 1 -9.5956,26.558"
       style="fill:#66cc33;stroke:#015a01"
       transform="matrix(0.87876,0,0,1,-107.75,4.7896)"
       inkscape:connector-curvature="0" />
  </g>
  <path
     id="path4619"
     d="m 56.759509,19.03505 a 1.4626986,1.2836454 0 1 1 -2.251953,0.393356"
     style="fill:url(#linearGradient3922);stroke:#333333;stroke-width:0.15416673"
     inkscape:connector-curvature="0" />
  <path
     id="path4564"
     d="m 40.935604,47.650162 c 0.930076,0.424383 2.704653,0.21539 5.00067,-0.384665"
     style="fill:none;stroke:#015a01;stroke-width:0.18651912"
     inkscape:connector-curvature="0" />
  <path
     id="path4564-1"
     d="m 38.412485,41.731278 c 0.930062,0.424384 3.112639,0.623391 5.408656,0.02332"
     style="fill:none;stroke:#015a01;stroke-width:0.18651912"
     inkscape:connector-curvature="0" />
  <path
     id="path4564-7"
     d="m 36.782474,34.824479 c 1.338051,0.832383 1.713071,1.163738 3.459219,1.272872"
     style="fill:none;stroke:#015a01;stroke-width:0.18651912"
     inkscape:connector-curvature="0" />
  <g
     id="g3342"
     style="opacity:0.45;stroke:#015a01"
     transform="matrix(0.20723627,0,0,0.20723627,47.0107,-7.3604249)">
    <path
       id="path3320"
       d="m 238.76,154.03 a 10.902,13.628 0 1 1 -21.804,0 10.902,13.628 0 1 1 21.804,0 z"
       style="opacity:0.33000004;fill:#006600;stroke:#015a01"
       transform="matrix(0.99455,-0.56691,0.64461,0.87466,-323.18,128.31)"
       inkscape:connector-curvature="0" />
    <path
       id="path3320-7"
       d="m -2.4673,124.52 c -10.397,7.8672 3.174,25.794 15.402,20.06 11.488,-7.4648 -3.2008,-26.94 -15.402,-20.06 z"
       style="opacity:0.33000004;fill:#006600;stroke:#015a01"
       inkscape:connector-curvature="0" />
  </g>
  <path
     id="path4211-6"
     d="m 54.158822,13.283156 c -0.828667,0.05398 -1.593703,0.504689 -1.625594,1.463668 0.0074,0.121188 0.02537,0.24017 0.05181,0.356188 -0.357504,-0.379577 -0.801032,-0.680154 -1.223962,-0.841917 -1.211893,-0.679915 -3.457599,-0.420331 -3.516638,1.301746 0.137049,2.176218 3.230282,3.674899 4.986772,2.337927 0.489529,-0.471562 0.590542,-1.023684 0.459817,-1.560738 0.931723,0.935999 2.511265,1.307455 3.548958,0.492191 1.135618,-1.129048 -0.135108,-2.796979 -1.269319,-3.244612 -0.392341,-0.227166 -0.914623,-0.336774 -1.411846,-0.304379 z"
     style="opacity:0.5696;fill:#015a01;stroke:#015a01;stroke-width:0.20723626"
     inkscape:connector-curvature="0" />
  <path
     id="rect3395"
     d="m 48.737669,9.5878951 c 0.208755,-0.09565 0.457738,0.004 0.558263,0.223365 0,0 0.342895,1.4773489 1.234198,2.6937679 0.231119,0.696197 -0.694344,0.938651 -0.94406,0.43255 0,0 -0.104336,-1.143806 -1.234195,-2.693769 -1.129859,-1.5499629 0.06984,-0.5111529 0.385806,-0.6559249 z"
     style="fill:#474747;stroke:#424242;stroke-width:0.20723626"
     inkscape:connector-curvature="0" />
  <path
     id="path3415"
     d="m 49.736359,9.1882031 a 1.2641456,1.2641456 0 1 1 -2.528291,0 1.2641456,1.2641456 0 1 1 2.528291,0 z"
     style="fill:#474747;stroke:#3c3c3c;stroke-width:0.30628651"
     inkscape:connector-curvature="0" />
  <path
     id="path4211"
     d="m 52.944665,17.416891 c -0.374839,0.761343 -1.612019,0.919034 -2.763258,0.352213 -1.151349,-0.566817 -1.780731,-1.643474 -1.405923,-2.404828 0.374836,-0.761342 1.392349,-0.359873 2.763258,-0.352213 1.283214,0.0072 1.780728,1.643475 1.405923,2.404828 z"
     style="fill:#eeeeee;stroke:#015a01;stroke-width:0.20723626"
     inkscape:connector-curvature="0" />
  <path
     id="path4211-0"
     d="m 56.904951,16.380495 c -0.315897,0.662205 -1.358522,0.799361 -2.328769,0.306351 -0.970249,-0.493009 -1.500731,-1.429516 -1.184854,-2.091755 0.315896,-0.662207 1.11892,-0.399961 2.328766,-0.30635 1.085095,0.08396 1.500734,1.429516 1.184857,2.091754 z"
     style="fill:#eeeeee;stroke:#015a01;stroke-width:0.20723626"
     inkscape:connector-curvature="0" />
  <path
     id="path4292"
     d="m 52.399534,15.866605 a 0.70604267,0.67780568 0 1 1 -1.412067,0 0.70604267,0.67780568 0 1 1 1.412067,0 z"
     style="fill:#212121;stroke:url(#linearGradient3078);stroke-width:0.35231027"
     inkscape:connector-curvature="0" />
  <path
     id="path4239"
     d="m 55.990291,25.073515 c -7.166329,-0.01549 -4.473097,1.621175 -9.520522,2.402459 -2.908158,1.331048 0.242843,3.880887 -3.043366,6.198021 -1.313379,2.613292 2.738804,3.552511 1.521952,6.139518 0.117882,1.909148 3.039382,1.836211 1.709732,3.782096 0.0083,2.940587 3.729197,3.540338 2.692801,6.586182 0.627267,6.301765 2.861187,12.43461 6.126809,17.841752 2.608122,1.621287 0.15092,4.830994 2.863559,6.27613 -1.66093,1.72557 -0.248661,4.466738 -1.768342,6.323418 -1.708438,3.00738 -5.6057,7.70737 -9.271009,7.56268 -3.501341,0.66392 -6.75188,-0.87277 -9.212728,2.0172 -2.269731,2.92518 2.892538,3.1329 4.734135,2.39503 1.902897,-1.71641 3.793297,-0.63301 6.047624,-0.37295 2.369706,0.1681 4.959082,-0.36135 6.685513,-2.09735 2.758305,0.0886 6.25555,-1.26889 6.586399,-4.38443 2.742677,-0.65854 5.221415,-3.54971 3.904373,-6.42479 0.790966,-1.849147 3.810533,-4.554661 2.157363,-7.36963 1.784713,-2.385116 -1.459145,-4.332935 -1.254669,-6.236698 0.163748,-2.589483 -2.960943,-3.527087 -1.769195,-6.22991 -0.633433,-6.116678 -3.732969,-11.741879 -7.526051,-16.475689 -1.908504,-1.166324 -1.914644,-4.058325 -4.185666,-5.060785 -0.169938,-1.426069 -0.0088,-3.794592 -1.630008,-4.96447 1.384376,-2.266068 -1.23689,-5.338736 2.217264,-6.184338 1.004089,-0.735303 1.267485,-0.662613 1.934032,-1.723199 z"
     style="opacity:0.16000001;fill:#2f5a01;stroke:#015a01;stroke-width:0.20723626;stroke-opacity:0.45631026"
     inkscape:connector-curvature="0" />
  <path
     id="path3079"
     d="m 49.969064,28.430493 -3.568459,0.563435 c 1.851832,-0.114003 4.461246,1.152964 5.61701,0.231014 0.302518,-0.824356 -1.5533,-0.490263 -2.048551,-0.794449 z m 2.020543,4.03473 c -0.239804,0.02387 -0.555809,0.102676 -0.641156,0.0194 -1.712856,0.0503 -4.174997,0.181929 -5.41415,0.641142 l 3.380571,0.861343 c 1.054215,-0.620999 3.888321,0.177876 2.849553,-1.217497 0.225248,-0.293759 0.06495,-0.328245 -0.174863,-0.304382 z m 1.644984,5.103338 c -2.534973,0.152757 -5.057552,0.456177 -7.596617,0.556961 1.991345,0.294544 3.971705,0.73234 5.990523,0.3821 0.953367,-0.309961 2.879287,0.418297 1.606094,-0.939061 z m 3.27704,4.591711 c -1.897082,0.23066 -2.373155,0.07883 -4.371507,0.116569 -1.311331,-0.03765 -4.814613,0.03746 -4.766564,0.31734 1.692602,0.222998 3.378525,0.657401 5.083839,0.265531 0.945277,-0.345255 5.899058,0.692165 4.054123,-0.69944 z m 2.959653,3.626745 c -3.232649,0.482322 -6.597711,0.11326 -9.740298,1.172248 l 3.594316,0.420959 c 1.772326,-0.954564 5.880956,-0.184548 6.430938,-1.178715 z"
     style="opacity:0.22000002;fill:#816647;stroke-width:0.10773356"
     inkscape:connector-curvature="0" />
  <path
     id="path3069"
     d="m 64.255609,61.970106 c -0.76861,-0.01154 -1.69745,0.155633 -2.305496,0.03886 -2.440058,0.008 -4.779924,0.756254 -7.143274,1.269313 1.633781,0.09941 3.296001,0.784476 4.89606,0.174867 1.718781,-0.708942 4.51317,-0.571259 5.660208,-1.165678 -0.245628,-0.238006 -0.646267,-0.310413 -1.107388,-0.317339 z m 1.457205,4.844238 c -1.527337,-0.0321 -3.500803,0.308916 -4.695243,0.09715 l -3.555425,0.56343 c 3.417311,-0.0055 6.834622,0.0027 10.251926,0 -0.326859,-0.487287 -1.084767,-0.641302 -2.001149,-0.660576 z m -0.744773,5.245764 c -0.484344,-0.0075 -0.967629,0.02022 -1.457205,0.11009 l -3.503713,0.880776 c 2.320905,-0.382424 4.633621,0.306656 6.955496,-0.129528 1.288711,0.238709 2.225775,-0.945984 0.42096,-0.731809 -0.808089,-0.01885 -1.608357,-0.116968 -2.415606,-0.129529 z m -4.138369,6.631653 -3.186327,0.86133 c 2.56934,0.30557 5.144602,0.66949 7.719755,0.16191 1.049735,-0.16958 0.491987,-1.49955 -0.395045,-0.6023 -1.352272,0.20072 -2.768646,-0.36666 -4.13837,-0.42096 z m -3.561996,6.89073 -3.568456,0.56344 c 2.846216,-0.27095 5.600635,0.67786 8.438553,0.50515 0.583484,-1.59467 -3.915363,-0.81577 -4.870206,-1.06859 z m -4.177152,3.26401 c -1.179142,0.0856 -2.345789,0.33758 -3.516638,0.5181 2.118041,-0.1554 4.306542,1.48187 6.184874,0.81601 0.922522,0.0679 3.590655,-0.29513 1.275781,-0.53106 -1.308853,-0.28255 -2.585065,-0.83036 -3.944017,-0.80305 z"
     style="opacity:0.22000002;fill:#816647;stroke-width:0.10773356"
     inkscape:connector-curvature="0" />
  <path
     id="path4248"
     d="m 43.511513,32.19255 c -1.172787,0.211889 -0.904918,2.375739 0.330279,2.402674 0.912019,0.250501 1.684093,0.414246 2.837917,0.100398 1.202738,-0.941668 -0.445693,-1.613202 -1.341604,-1.369726 -1.740544,0.151066 -0.741812,-0.865553 -1.826624,-1.133357 z m 0.641155,5.718497 c -1.676765,0.629486 -0.187802,2.731799 1.249926,2.350854 1.167078,0.09405 1.771461,-0.519631 2.415602,-0.809511 1.439967,-1.423484 -0.991235,-1.60566 -1.8263,-0.647639 -1.348178,0.441362 -0.868376,-0.635467 -1.839228,-0.893716 z m 5.465971,4.403824 c -1.107287,-0.03362 -1.801198,1.132926 -2.856017,1.088001 -1.660496,-0.292431 -1.239907,1.926385 0.233144,1.431241 1.123986,0.187295 1.501914,-0.911953 2.577527,-1.003807 0.870014,-0.06791 1.034265,-1.457528 0.04533,-1.515489 z m 2.124181,5.485363 c -0.779709,0.30344 -1.695618,1.2496 -2.590452,0.777125 -1.883505,-1.375759 -1.211895,2.004704 -0.09715,1.521951 0.97263,0.231846 2.239458,-0.365098 2.739451,-0.731823 0.392839,0.05522 1.274055,-1.432857 -0.05184,-1.567199 z m -0.498677,1.871654 c -0.189331,0.114586 0.18303,-0.06565 0,0 z m 5.239302,16.177272 c -1.749058,0.562433 0.204196,2.727487 1.450628,2.700555 1.111596,0.08894 2.336095,0.03729 3.095615,-0.880782 0.996391,-2.516441 -3.336503,0.767285 -4.007257,-1.521956 l -0.156344,-0.163248 -0.382724,-0.13461 z m 0.790105,7.221054 c -1.377482,0.353307 -0.306061,2.393736 0.401501,3.063192 1.063634,0.722493 2.383285,0.731919 3.621575,0.579612 1.203811,-0.938874 -0.446955,-1.614812 -1.34161,-1.369723 C 59.093118,75.45419 58.149183,74.98658 58.096072,74.035091 57.931218,73.638242 57.82886,73.078199 57.273571,73.07016 Z m 1.385884,3.536034 -0.06475,-0.03238 z m -6.502151,7.039733 c -1.236998,0.39411 -0.704652,2.30723 -0.01297,3.05673 0.483161,0.56246 0.848162,1.31726 1.31467,1.63841 0.615784,0.3614 1.041881,0.9107 1.80734,0.58346 1.029503,-0.74653 -0.883298,-1.61578 -0.628648,-1.49663 -0.633989,-0.28982 -1.06502,-1.36337 -1.619019,-1.94287 -0.379718,-0.60749 0.230646,-1.77954 -0.861331,-1.83923 z m 1.288816,4.68232 c -0.221361,-0.24388 -0.05461,-0.0147 0,0 z m -9.837474,-0.68 c -1.148547,0.50538 -1.151995,2.05318 -1.100929,3.14711 -0.160373,1.08876 0.305812,2.18785 1.379419,2.59077 1.777067,0.91983 1.057395,-1.79656 0.226672,-1.55427 -0.484801,-0.49263 0.03033,-1.45925 -0.174818,-2.08529 -0.05147,-0.70571 1.163846,-1.88587 -0.330334,-2.09832 z m -8.147135,0.34971 c -0.967341,0.29341 -1.708977,1.51053 -1.670838,2.8042 -0.216407,1.03349 0.368187,2.37304 1.120427,2.57106 1.684307,1.13723 1.825976,-1.21459 0.310853,-1.58023 -0.05164,-0.99202 -0.06119,-2.09801 0.876878,-2.69841 0.332907,-0.4537 -0.08607,-1.14908 -0.637277,-1.09662 z m 18.548487,0.68648 c 0.04671,0.002 0.0035,0.0157 0,0 z m -9.999399,0.6023 c 0.0308,-0.006 -0.05137,0.0496 0,0 z"
     style="fill:#ffff99;stroke:#816647;stroke-width:0.2694093"
     inkscape:connector-curvature="0" />
  <path
     id="rect3395-8"
     d="m 54.174981,8.7249501 c 0.22665,0.03685 0.377928,0.25829 0.339189,0.496477 0,0 -0.538217,1.4179909 -0.475568,2.9246439 -0.195881,0.706913 -1.09953,0.392731 -1.024979,-0.166664 0,0 0.550497,-1.00801 0.475568,-2.9246439 -0.07493,-1.916578 0.342745,-0.3856 0.685779,-0.329813 z"
     style="fill:#474747;stroke:#424242;stroke-width:0.20723626"
     inkscape:connector-curvature="0" />
  <path
     id="path3415-7"
     d="m 55.227541,8.9490341 a 1.2642855,1.2642855 0 1 1 -2.09973,-1.408831 1.2642855,1.2642855 0 1 1 2.09973,1.408831 z"
     style="fill:#474747;stroke:#3c3c3c;stroke-width:0.30628651"
     inkscape:connector-curvature="0" />
  <path
     id="path4292-3"
     d="m 55.446237,15.034902 a 0.70604267,0.67780568 0 1 1 -1.412064,0 0.70604267,0.67780568 0 1 1 1.412064,0 z"
     style="fill:#212121;stroke:url(#linearGradient3069);stroke-width:0.35231027"
     inkscape:connector-curvature="0" />
  <metadata
     id="metadata67">
    <rdf:RDF>
      <cc:Work>
        <dc:format>image/svg+xml</dc:format>
        <dc:type
           rdf:resource="http://purl.org/dc/dcmitype/StillImage" />
        <cc:license
           rdf:resource="http://creativecommons.org/publicdomain/zero/1.0/" />
        <dc:publisher>
          <cc:Agent
             rdf:about="http://openclipart.org/">
            <dc:title>Openclipart</dc:title>
          </cc:Agent>
        </dc:publisher>
        <dc:title>Caterpillar 4 LDAP</dc:title>
        <dc:date>2012-04-08T15:30:21</dc:date>
        <dc:description>The OpenLDAP caterpillar mascot . This is a Vector inspired by the &quot;low res&quot; bitmap at the homepage (as of 2012/04)</dc:description>
        <dc:source>https://openclipart.org/detail/169427/caterpillar-4-ldap-by-dynnamitt</dc:source>
        <dc:creator>
          <cc:Agent>
            <dc:title>dynnamitt</dc:title>
          </cc:Agent>
        </dc:creator>
        <dc:subject>
          <rdf:Bag>
            <rdf:li>LDAP</rdf:li>
            <rdf:li>caterpillar</rdf:li>
            <rdf:li>green</rdf:li>
            <rdf:li>happy</rdf:li>
          </rdf:Bag>
        </dc:subject>
      </cc:Work>
      <cc:License
         rdf:about="http://creativecommons.org/publicdomain/zero/1.0/">
        <cc:permits
           rdf:resource="http://creativecommons.org/ns#Reproduction" />
        <cc:permits
           rdf:resource="http://creativecommons.org/ns#Distribution" />
        <cc:permits
           rdf:resource="http://creativecommons.org/ns#DerivativeWorks" />
      </cc:License>
    </rdf:RDF>
  </metadata>
</svg>
